<mxfile host="app.diagrams.net" agent="Mozilla/5.0 (Windows NT 10.0; Win64; x64) AppleWebKit/537.36 (KHTML, like Gecko) Chrome/135.0.0.0 Safari/537.36 Edg/135.0.0.0" version="26.2.13">
  <diagram name="Flowchart" id="e7e014a7-5840-1c2e-5031-d8a46d1fe8dd">
    <mxGraphModel dx="294245" dy="207400" grid="1" gridSize="10" guides="1" tooltips="1" connect="1" arrows="1" fold="1" page="1" pageScale="1" pageWidth="1169" pageHeight="826" background="none" math="0" shadow="0">
      <root>
        <mxCell id="0" />
        <mxCell id="1" parent="0" />
        <mxCell id="MBNVMw7RssWpH0rWWoih-68" value="Start" style="ellipse;whiteSpace=wrap;html=1;" vertex="1" parent="1">
          <mxGeometry x="30" y="100" width="80" height="40" as="geometry" />
        </mxCell>
        <mxCell id="MBNVMw7RssWpH0rWWoih-96" value="" style="edgeStyle=orthogonalEdgeStyle;rounded=0;orthogonalLoop=1;jettySize=auto;html=1;" edge="1" parent="1" source="MBNVMw7RssWpH0rWWoih-69" target="MBNVMw7RssWpH0rWWoih-72">
          <mxGeometry relative="1" as="geometry" />
        </mxCell>
        <mxCell id="MBNVMw7RssWpH0rWWoih-69" value="bundle_type = &quot;AddOn&quot;" style="rhombus;whiteSpace=wrap;html=1;" vertex="1" parent="1">
          <mxGeometry x="136" y="90" width="120" height="60" as="geometry" />
        </mxCell>
        <mxCell id="MBNVMw7RssWpH0rWWoih-97" value="" style="edgeStyle=orthogonalEdgeStyle;rounded=0;orthogonalLoop=1;jettySize=auto;html=1;" edge="1" parent="1" source="MBNVMw7RssWpH0rWWoih-70" target="MBNVMw7RssWpH0rWWoih-71">
          <mxGeometry relative="1" as="geometry" />
        </mxCell>
        <mxCell id="MBNVMw7RssWpH0rWWoih-70" value="AddOn Bundle Logic" style="rounded=1;whiteSpace=wrap;html=1;" vertex="1" parent="1">
          <mxGeometry x="126" y="220" width="140" height="60" as="geometry" />
        </mxCell>
        <mxCell id="MBNVMw7RssWpH0rWWoih-71" value="End" style="ellipse;whiteSpace=wrap;html=1;" vertex="1" parent="1">
          <mxGeometry x="156" y="340" width="80" height="40" as="geometry" />
        </mxCell>
        <mxCell id="MBNVMw7RssWpH0rWWoih-98" value="" style="edgeStyle=orthogonalEdgeStyle;rounded=0;orthogonalLoop=1;jettySize=auto;html=1;" edge="1" parent="1" source="MBNVMw7RssWpH0rWWoih-72" target="MBNVMw7RssWpH0rWWoih-75">
          <mxGeometry relative="1" as="geometry" />
        </mxCell>
        <mxCell id="MBNVMw7RssWpH0rWWoih-72" value="bundle_type = &quot;Main&quot;" style="rhombus;whiteSpace=wrap;html=1;" vertex="1" parent="1">
          <mxGeometry x="295" y="90" width="120" height="60" as="geometry" />
        </mxCell>
        <mxCell id="MBNVMw7RssWpH0rWWoih-132" style="edgeStyle=orthogonalEdgeStyle;rounded=0;orthogonalLoop=1;jettySize=auto;html=1;exitX=0.5;exitY=1;exitDx=0;exitDy=0;entryX=0.5;entryY=0;entryDx=0;entryDy=0;" edge="1" parent="1" source="MBNVMw7RssWpH0rWWoih-73" target="MBNVMw7RssWpH0rWWoih-131">
          <mxGeometry relative="1" as="geometry" />
        </mxCell>
        <mxCell id="MBNVMw7RssWpH0rWWoih-73" value="AddOn Non Bundle Logic" style="rounded=1;whiteSpace=wrap;html=1;" vertex="1" parent="1">
          <mxGeometry x="520.5" y="90" width="160" height="60" as="geometry" />
        </mxCell>
        <mxCell id="MBNVMw7RssWpH0rWWoih-74" value="End" style="ellipse;whiteSpace=wrap;html=1;" vertex="1" parent="1">
          <mxGeometry x="570" y="550" width="80" height="40" as="geometry" />
        </mxCell>
        <mxCell id="MBNVMw7RssWpH0rWWoih-99" value="" style="edgeStyle=orthogonalEdgeStyle;rounded=0;orthogonalLoop=1;jettySize=auto;html=1;" edge="1" parent="1" source="MBNVMw7RssWpH0rWWoih-75" target="MBNVMw7RssWpH0rWWoih-76">
          <mxGeometry relative="1" as="geometry" />
        </mxCell>
        <mxCell id="MBNVMw7RssWpH0rWWoih-125" style="edgeStyle=orthogonalEdgeStyle;rounded=0;orthogonalLoop=1;jettySize=auto;html=1;exitX=1;exitY=0.5;exitDx=0;exitDy=0;entryX=0.5;entryY=0;entryDx=0;entryDy=0;" edge="1" parent="1" source="MBNVMw7RssWpH0rWWoih-75" target="MBNVMw7RssWpH0rWWoih-79">
          <mxGeometry relative="1" as="geometry" />
        </mxCell>
        <mxCell id="MBNVMw7RssWpH0rWWoih-126" style="edgeStyle=orthogonalEdgeStyle;rounded=0;orthogonalLoop=1;jettySize=auto;html=1;exitX=1;exitY=0.5;exitDx=0;exitDy=0;entryX=0.5;entryY=0;entryDx=0;entryDy=0;" edge="1" parent="1" source="MBNVMw7RssWpH0rWWoih-75" target="MBNVMw7RssWpH0rWWoih-108">
          <mxGeometry relative="1" as="geometry" />
        </mxCell>
        <mxCell id="MBNVMw7RssWpH0rWWoih-75" value="Main Delta Action Logic" style="rounded=1;whiteSpace=wrap;html=1;" vertex="1" parent="1">
          <mxGeometry x="275" y="220" width="160" height="60" as="geometry" />
        </mxCell>
        <mxCell id="MBNVMw7RssWpH0rWWoih-101" value="" style="edgeStyle=orthogonalEdgeStyle;rounded=0;orthogonalLoop=1;jettySize=auto;html=1;" edge="1" parent="1" source="MBNVMw7RssWpH0rWWoih-76" target="MBNVMw7RssWpH0rWWoih-77">
          <mxGeometry relative="1" as="geometry" />
        </mxCell>
        <mxCell id="MBNVMw7RssWpH0rWWoih-130" style="edgeStyle=orthogonalEdgeStyle;rounded=0;orthogonalLoop=1;jettySize=auto;html=1;exitX=1;exitY=0.5;exitDx=0;exitDy=0;entryX=0;entryY=0.5;entryDx=0;entryDy=0;" edge="1" parent="1" source="MBNVMw7RssWpH0rWWoih-76" target="MBNVMw7RssWpH0rWWoih-129">
          <mxGeometry relative="1" as="geometry" />
        </mxCell>
        <mxCell id="MBNVMw7RssWpH0rWWoih-76" value="Remove Device Logic?" style="rhombus;whiteSpace=wrap;html=1;" vertex="1" parent="1">
          <mxGeometry x="295" y="330" width="120" height="60" as="geometry" />
        </mxCell>
        <mxCell id="MBNVMw7RssWpH0rWWoih-102" value="" style="edgeStyle=orthogonalEdgeStyle;rounded=0;orthogonalLoop=1;jettySize=auto;html=1;" edge="1" parent="1" source="MBNVMw7RssWpH0rWWoih-77" target="MBNVMw7RssWpH0rWWoih-78">
          <mxGeometry relative="1" as="geometry" />
        </mxCell>
        <mxCell id="MBNVMw7RssWpH0rWWoih-77" value="Remove AddOn Logic" style="rounded=1;whiteSpace=wrap;html=1;" vertex="1" parent="1">
          <mxGeometry x="275" y="440" width="160" height="60" as="geometry" />
        </mxCell>
        <mxCell id="MBNVMw7RssWpH0rWWoih-78" value="End" style="ellipse;whiteSpace=wrap;html=1;" vertex="1" parent="1">
          <mxGeometry x="315" y="550" width="80" height="40" as="geometry" />
        </mxCell>
        <mxCell id="MBNVMw7RssWpH0rWWoih-103" value="" style="edgeStyle=orthogonalEdgeStyle;rounded=0;orthogonalLoop=1;jettySize=auto;html=1;" edge="1" parent="1" source="MBNVMw7RssWpH0rWWoih-79" target="MBNVMw7RssWpH0rWWoih-80">
          <mxGeometry relative="1" as="geometry" />
        </mxCell>
        <mxCell id="MBNVMw7RssWpH0rWWoih-79" value="Remove AddOn-HSSP?" style="rhombus;whiteSpace=wrap;html=1;" vertex="1" parent="1">
          <mxGeometry x="530" y="330" width="160" height="60" as="geometry" />
        </mxCell>
        <mxCell id="MBNVMw7RssWpH0rWWoih-104" value="" style="edgeStyle=orthogonalEdgeStyle;rounded=0;orthogonalLoop=1;jettySize=auto;html=1;" edge="1" parent="1" source="MBNVMw7RssWpH0rWWoih-80" target="MBNVMw7RssWpH0rWWoih-74">
          <mxGeometry relative="1" as="geometry" />
        </mxCell>
        <mxCell id="MBNVMw7RssWpH0rWWoih-80" value="Remove AddOn Logic" style="rounded=1;whiteSpace=wrap;html=1;" vertex="1" parent="1">
          <mxGeometry x="530" y="440" width="160" height="60" as="geometry" />
        </mxCell>
        <mxCell id="MBNVMw7RssWpH0rWWoih-81" value="End" style="ellipse;whiteSpace=wrap;html=1;" vertex="1" parent="1">
          <mxGeometry x="1003" y="339" width="80" height="40" as="geometry" />
        </mxCell>
        <mxCell id="MBNVMw7RssWpH0rWWoih-82" style="endArrow=block;" edge="1" parent="1" source="MBNVMw7RssWpH0rWWoih-68" target="MBNVMw7RssWpH0rWWoih-69">
          <mxGeometry relative="1" as="geometry" />
        </mxCell>
        <mxCell id="MBNVMw7RssWpH0rWWoih-83" style="endArrow=block;" edge="1" parent="1" source="MBNVMw7RssWpH0rWWoih-69" target="MBNVMw7RssWpH0rWWoih-70">
          <mxGeometry relative="1" as="geometry">
            <mxPoint x="120" y="120" as="offset" />
          </mxGeometry>
        </mxCell>
        <mxCell id="MBNVMw7RssWpH0rWWoih-84" style="endArrow=block;" edge="1" parent="1" source="MBNVMw7RssWpH0rWWoih-70" target="MBNVMw7RssWpH0rWWoih-71" />
        <mxCell id="MBNVMw7RssWpH0rWWoih-85" style="endArrow=block;" edge="1" parent="1" source="MBNVMw7RssWpH0rWWoih-69" target="MBNVMw7RssWpH0rWWoih-72" />
        <mxCell id="MBNVMw7RssWpH0rWWoih-86" style="endArrow=block;" edge="1" parent="1" source="MBNVMw7RssWpH0rWWoih-72" target="MBNVMw7RssWpH0rWWoih-73">
          <mxGeometry relative="1" as="geometry">
            <mxPoint x="640" y="120" as="offset" />
          </mxGeometry>
        </mxCell>
        <mxCell id="MBNVMw7RssWpH0rWWoih-87" style="endArrow=block;" edge="1" parent="1" source="MBNVMw7RssWpH0rWWoih-73" target="MBNVMw7RssWpH0rWWoih-74" />
        <mxCell id="MBNVMw7RssWpH0rWWoih-88" style="endArrow=block;" edge="1" parent="1" source="MBNVMw7RssWpH0rWWoih-72" target="MBNVMw7RssWpH0rWWoih-75" />
        <mxCell id="MBNVMw7RssWpH0rWWoih-89" style="endArrow=block;" edge="1" parent="1" source="MBNVMw7RssWpH0rWWoih-75" target="MBNVMw7RssWpH0rWWoih-76" />
        <mxCell id="MBNVMw7RssWpH0rWWoih-90" style="endArrow=block;" edge="1" parent="1" source="MBNVMw7RssWpH0rWWoih-76" target="MBNVMw7RssWpH0rWWoih-77" />
        <mxCell id="MBNVMw7RssWpH0rWWoih-91" style="endArrow=block;" edge="1" parent="1" source="MBNVMw7RssWpH0rWWoih-77" target="MBNVMw7RssWpH0rWWoih-78" />
        <mxCell id="MBNVMw7RssWpH0rWWoih-92" style="endArrow=block;" edge="1" parent="1" source="MBNVMw7RssWpH0rWWoih-75" target="MBNVMw7RssWpH0rWWoih-79" />
        <mxCell id="MBNVMw7RssWpH0rWWoih-93" style="endArrow=block;" edge="1" parent="1" source="MBNVMw7RssWpH0rWWoih-79" target="MBNVMw7RssWpH0rWWoih-80" />
        <mxCell id="MBNVMw7RssWpH0rWWoih-94" style="endArrow=block;" edge="1" parent="1" source="MBNVMw7RssWpH0rWWoih-80" target="MBNVMw7RssWpH0rWWoih-81" />
        <mxCell id="MBNVMw7RssWpH0rWWoih-106" value="End" style="ellipse;whiteSpace=wrap;html=1;" vertex="1" parent="1">
          <mxGeometry x="851" y="549" width="80" height="40" as="geometry" />
        </mxCell>
        <mxCell id="MBNVMw7RssWpH0rWWoih-107" value="" style="edgeStyle=orthogonalEdgeStyle;rounded=0;orthogonalLoop=1;jettySize=auto;html=1;" edge="1" parent="1" source="MBNVMw7RssWpH0rWWoih-108" target="MBNVMw7RssWpH0rWWoih-110">
          <mxGeometry relative="1" as="geometry" />
        </mxCell>
        <mxCell id="MBNVMw7RssWpH0rWWoih-115" value="" style="edgeStyle=orthogonalEdgeStyle;rounded=0;orthogonalLoop=1;jettySize=auto;html=1;" edge="1" parent="1" source="MBNVMw7RssWpH0rWWoih-108" target="MBNVMw7RssWpH0rWWoih-81">
          <mxGeometry relative="1" as="geometry" />
        </mxCell>
        <mxCell id="MBNVMw7RssWpH0rWWoih-108" value="Remove Upgrade Speed?" style="rhombus;whiteSpace=wrap;html=1;" vertex="1" parent="1">
          <mxGeometry x="811" y="329" width="160" height="60" as="geometry" />
        </mxCell>
        <mxCell id="MBNVMw7RssWpH0rWWoih-109" value="" style="edgeStyle=orthogonalEdgeStyle;rounded=0;orthogonalLoop=1;jettySize=auto;html=1;" edge="1" parent="1" source="MBNVMw7RssWpH0rWWoih-110" target="MBNVMw7RssWpH0rWWoih-106">
          <mxGeometry relative="1" as="geometry" />
        </mxCell>
        <mxCell id="MBNVMw7RssWpH0rWWoih-110" value="Remove AddOn Logic" style="rounded=1;whiteSpace=wrap;html=1;" vertex="1" parent="1">
          <mxGeometry x="811" y="439" width="160" height="60" as="geometry" />
        </mxCell>
        <mxCell id="MBNVMw7RssWpH0rWWoih-113" value="No" style="text;html=1;align=center;verticalAlign=middle;whiteSpace=wrap;rounded=0;" vertex="1" parent="1">
          <mxGeometry x="246" y="90" width="60" height="30" as="geometry" />
        </mxCell>
        <mxCell id="MBNVMw7RssWpH0rWWoih-116" value="No" style="text;html=1;align=center;verticalAlign=middle;whiteSpace=wrap;rounded=0;" vertex="1" parent="1">
          <mxGeometry x="405" y="90" width="60" height="30" as="geometry" />
        </mxCell>
        <mxCell id="MBNVMw7RssWpH0rWWoih-117" value="Yes" style="text;html=1;align=center;verticalAlign=middle;whiteSpace=wrap;rounded=0;" vertex="1" parent="1">
          <mxGeometry x="345" y="160" width="60" height="30" as="geometry" />
        </mxCell>
        <mxCell id="MBNVMw7RssWpH0rWWoih-118" value="Yes" style="text;html=1;align=center;verticalAlign=middle;whiteSpace=wrap;rounded=0;" vertex="1" parent="1">
          <mxGeometry x="196" y="160" width="60" height="30" as="geometry" />
        </mxCell>
        <mxCell id="MBNVMw7RssWpH0rWWoih-119" value="No" style="text;html=1;align=center;verticalAlign=middle;whiteSpace=wrap;rounded=0;" vertex="1" parent="1">
          <mxGeometry x="395" y="329" width="60" height="30" as="geometry" />
        </mxCell>
        <mxCell id="MBNVMw7RssWpH0rWWoih-120" value="Yes" style="text;html=1;align=center;verticalAlign=middle;whiteSpace=wrap;rounded=0;" vertex="1" parent="1">
          <mxGeometry x="345" y="400" width="60" height="30" as="geometry" />
        </mxCell>
        <mxCell id="MBNVMw7RssWpH0rWWoih-121" value="No" style="text;html=1;align=center;verticalAlign=middle;whiteSpace=wrap;rounded=0;" vertex="1" parent="1">
          <mxGeometry x="670" y="330" width="60" height="30" as="geometry" />
        </mxCell>
        <mxCell id="MBNVMw7RssWpH0rWWoih-122" value="Yes" style="text;html=1;align=center;verticalAlign=middle;whiteSpace=wrap;rounded=0;" vertex="1" parent="1">
          <mxGeometry x="610" y="400" width="60" height="30" as="geometry" />
        </mxCell>
        <mxCell id="MBNVMw7RssWpH0rWWoih-123" value="No" style="text;html=1;align=center;verticalAlign=middle;whiteSpace=wrap;rounded=0;" vertex="1" parent="1">
          <mxGeometry x="958" y="329" width="60" height="30" as="geometry" />
        </mxCell>
        <mxCell id="MBNVMw7RssWpH0rWWoih-124" value="Yes" style="text;html=1;align=center;verticalAlign=middle;whiteSpace=wrap;rounded=0;" vertex="1" parent="1">
          <mxGeometry x="898" y="399" width="60" height="30" as="geometry" />
        </mxCell>
        <mxCell id="MBNVMw7RssWpH0rWWoih-127" value="End" style="ellipse;whiteSpace=wrap;html=1;" vertex="1" parent="1">
          <mxGeometry x="712" y="340" width="80" height="40" as="geometry" />
        </mxCell>
        <mxCell id="MBNVMw7RssWpH0rWWoih-128" style="edgeStyle=orthogonalEdgeStyle;rounded=0;orthogonalLoop=1;jettySize=auto;html=1;exitX=0.25;exitY=1;exitDx=0;exitDy=0;entryX=0.75;entryY=1;entryDx=0;entryDy=0;" edge="1" parent="1" source="MBNVMw7RssWpH0rWWoih-121" target="MBNVMw7RssWpH0rWWoih-121">
          <mxGeometry relative="1" as="geometry" />
        </mxCell>
        <mxCell id="MBNVMw7RssWpH0rWWoih-129" value="End" style="ellipse;whiteSpace=wrap;html=1;" vertex="1" parent="1">
          <mxGeometry x="440.5" y="339" width="80" height="40" as="geometry" />
        </mxCell>
        <mxCell id="MBNVMw7RssWpH0rWWoih-131" value="End" style="ellipse;whiteSpace=wrap;html=1;" vertex="1" parent="1">
          <mxGeometry x="560.5" y="180" width="80" height="40" as="geometry" />
        </mxCell>
      </root>
    </mxGraphModel>
  </diagram>
</mxfile>
